<svg xmlns="http://www.w3.org/2000/svg" width="1600" height="1000" viewBox="0 0 1600 1000">
<defs><linearGradient id="sky" x1="0" y1="0" x2="0" y2="1"><stop offset="0%" stop-color="#120d16"/><stop offset="100%" stop-color="#3a2540"/></linearGradient></defs>
<rect width="1600" height="1000" fill="url(#sky)"/>
<circle cx="672.2" cy="73.1" r="0.82" fill="#ffffff" opacity="0.69"/><circle cx="894.1" cy="420.6" r="0.93" fill="#ffffff" opacity="0.29"/><circle cx="563.4" cy="162.5" r="1.36" fill="#ffffff" opacity="0.52"/><circle cx="1347.5" cy="366.6" r="0.86" fill="#ffffff" opacity="0.65"/><circle cx="1068.9" cy="515.4" r="0.77" fill="#ffffff" opacity="0.65"/><circle cx="157.0" cy="240.5" r="0.65" fill="#ffffff" opacity="0.82"/><circle cx="839.8" cy="350.7" r="1.22" fill="#ffffff" opacity="0.25"/><circle cx="15.4" cy="173.1" r="1.49" fill="#ffffff" opacity="0.69"/><circle cx="1589.7" cy="267.6" r="1.44" fill="#ffffff" opacity="0.63"/><circle cx="1173.5" cy="250.6" r="0.76" fill="#ffffff" opacity="0.43"/><circle cx="149.2" cy="181.7" r="1.04" fill="#ffffff" opacity="0.84"/><circle cx="1066.3" cy="377.7" r="0.58" fill="#ffffff" opacity="0.44"/><circle cx="338.7" cy="94.1" r="1.24" fill="#ffffff" opacity="0.25"/><circle cx="423.4" cy="350.0" r="1.59" fill="#ffffff" opacity="0.33"/><circle cx="781.1" cy="64.5" r="0.60" fill="#ffffff" opacity="0.26"/><circle cx="1198.8" cy="85.9" r="1.05" fill="#ffffff" opacity="0.50"/><circle cx="1180.1" cy="501.4" r="1.55" fill="#ffffff" opacity="0.53"/><circle cx="875.4" cy="363.6" r="0.89" fill="#ffffff" opacity="0.72"/><circle cx="1534.8" cy="144.7" r="1.06" fill="#ffffff" opacity="0.82"/><circle cx="1473.6" cy="19.1" r="0.41" fill="#ffffff" opacity="0.26"/><circle cx="1042.8" cy="453.0" r="0.63" fill="#ffffff" opacity="0.38"/><circle cx="772.3" cy="233.2" r="0.89" fill="#ffffff" opacity="0.78"/><circle cx="1472.4" cy="403.2" r="1.24" fill="#ffffff" opacity="0.65"/><circle cx="1080.2" cy="502.5" r="1.46" fill="#ffffff" opacity="0.57"/><circle cx="734.2" cy="439.5" r="1.50" fill="#ffffff" opacity="0.53"/><circle cx="1163.9" cy="352.1" r="0.63" fill="#ffffff" opacity="0.37"/><circle cx="961.4" cy="529.6" r="1.23" fill="#ffffff" opacity="0.73"/><circle cx="1084.4" cy="55.6" r="1.55" fill="#ffffff" opacity="0.83"/><circle cx="1460.9" cy="339.8" r="1.13" fill="#ffffff" opacity="0.62"/><circle cx="1095.5" cy="31.0" r="1.57" fill="#ffffff" opacity="0.84"/><circle cx="393.5" cy="321.5" r="0.71" fill="#ffffff" opacity="0.82"/><circle cx="894.6" cy="276.7" r="0.57" fill="#ffffff" opacity="0.40"/><circle cx="300.6" cy="26.5" r="0.81" fill="#ffffff" opacity="0.50"/><circle cx="1071.0" cy="12.7" r="1.49" fill="#ffffff" opacity="0.33"/><circle cx="528.5" cy="262.6" r="0.46" fill="#ffffff" opacity="0.46"/><circle cx="670.7" cy="372.7" r="0.58" fill="#ffffff" opacity="0.70"/><circle cx="637.4" cy="410.9" r="1.36" fill="#ffffff" opacity="0.26"/><circle cx="1529.3" cy="233.4" r="1.49" fill="#ffffff" opacity="0.81"/><circle cx="1046.6" cy="172.2" r="1.52" fill="#ffffff" opacity="0.41"/><circle cx="886.8" cy="285.1" r="1.13" fill="#ffffff" opacity="0.33"/><circle cx="293.2" cy="413.0" r="1.49" fill="#ffffff" opacity="0.61"/><circle cx="675.5" cy="115.7" r="1.19" fill="#ffffff" opacity="0.79"/><circle cx="180.9" cy="407.6" r="1.42" fill="#ffffff" opacity="0.73"/><circle cx="291.5" cy="461.7" r="0.76" fill="#ffffff" opacity="0.43"/><circle cx="706.7" cy="429.7" r="1.30" fill="#ffffff" opacity="0.40"/><circle cx="71.4" cy="349.8" r="1.02" fill="#ffffff" opacity="0.49"/><circle cx="754.9" cy="485.3" r="1.28" fill="#ffffff" opacity="0.38"/><circle cx="1418.8" cy="6.6" r="1.36" fill="#ffffff" opacity="0.29"/><circle cx="692.7" cy="367.5" r="0.56" fill="#ffffff" opacity="0.35"/><circle cx="858.6" cy="328.2" r="1.29" fill="#ffffff" opacity="0.27"/><circle cx="17.4" cy="212.3" r="1.23" fill="#ffffff" opacity="0.42"/><circle cx="218.2" cy="491.9" r="1.10" fill="#ffffff" opacity="0.83"/><circle cx="823.6" cy="452.5" r="1.24" fill="#ffffff" opacity="0.53"/><circle cx="1206.0" cy="530.9" r="0.90" fill="#ffffff" opacity="0.84"/><circle cx="849.0" cy="352.4" r="1.20" fill="#ffffff" opacity="0.67"/><circle cx="1210.0" cy="226.4" r="1.41" fill="#ffffff" opacity="0.74"/><circle cx="791.4" cy="333.6" r="0.69" fill="#ffffff" opacity="0.35"/><circle cx="1369.4" cy="15.4" r="1.14" fill="#ffffff" opacity="0.38"/><circle cx="162.0" cy="346.2" r="1.51" fill="#ffffff" opacity="0.54"/><circle cx="951.2" cy="390.5" r="1.12" fill="#ffffff" opacity="0.45"/>
<circle cx="400" cy="210" r="46" fill="#f5d0a9" opacity="0.8"/>
<path d="M0.0,401.0 L114.3,226.2 L228.6,412.5 L342.9,296.7 L457.1,371.8 L571.4,273.4 L685.7,389.7 L800.0,401.4 L914.3,433.7 L1028.6,279.1 L1142.9,513.9 L1257.1,242.9 L1371.4,425.4 L1485.7,417.6 L1600.0,412.5 L1600,1000 L0,1000 Z" fill="#453052"/><path d="M0.0,585.8 L114.3,442.3 L228.6,640.8 L342.9,569.5 L457.1,620.8 L571.4,454.9 L685.7,549.6 L800.0,649.0 L914.3,605.6 L1028.6,509.0 L1142.9,646.4 L1257.1,516.8 L1371.4,599.4 L1485.7,538.0 L1600.0,636.5 L1600,1000 L0,1000 Z" fill="#291e33"/><path d="M0.0,768.8 L114.3,593.2 L228.6,723.2 L342.9,813.0 L457.1,822.8 L571.4,792.3 L685.7,747.6 L800.0,602.3 L914.3,816.0 L1028.6,740.1 L1142.9,741.3 L1257.1,781.1 L1371.4,770.8 L1485.7,681.9 L1600.0,718.6 L1600,1000 L0,1000 Z" fill="#120c17"/>
<g fill="#0a0710"><rect x="640" y="740" width="320" height="120"/><polygon points="608,740 800,670 992,740"/><rect x="776" y="620" width="48" height="60"/></g><rect x="752" y="780" width="96" height="40" fill="#f59e0b" opacity="0.9"/>
</svg>