<svg xmlns="http://www.w3.org/2000/svg" width="1600" height="1000" viewBox="0 0 1600 1000">
<defs><linearGradient id="sky" x1="0" y1="0" x2="0" y2="1"><stop offset="0%" stop-color="#0a101f"/><stop offset="100%" stop-color="#243b63"/></linearGradient></defs>
<rect width="1600" height="1000" fill="url(#sky)"/>
<circle cx="785.0" cy="402.3" r="0.47" fill="#ffffff" opacity="0.28"/><circle cx="202.3" cy="505.7" r="1.00" fill="#ffffff" opacity="0.43"/><circle cx="587.7" cy="126.5" r="0.65" fill="#ffffff" opacity="0.48"/><circle cx="496.4" cy="12.0" r="0.50" fill="#ffffff" opacity="0.82"/><circle cx="922.6" cy="339.4" r="0.82" fill="#ffffff" opacity="0.44"/><circle cx="949.4" cy="290.0" r="0.55" fill="#ffffff" opacity="0.45"/><circle cx="669.8" cy="302.1" r="0.86" fill="#ffffff" opacity="0.51"/><circle cx="424.7" cy="461.7" r="0.96" fill="#ffffff" opacity="0.41"/><circle cx="146.1" cy="100.0" r="1.38" fill="#ffffff" opacity="0.43"/><circle cx="600.3" cy="7.0" r="0.91" fill="#ffffff" opacity="0.62"/><circle cx="550.5" cy="352.0" r="0.82" fill="#ffffff" opacity="0.77"/><circle cx="956.6" cy="436.1" r="0.54" fill="#ffffff" opacity="0.37"/><circle cx="435.7" cy="311.6" r="0.65" fill="#ffffff" opacity="0.50"/><circle cx="289.6" cy="269.9" r="0.77" fill="#ffffff" opacity="0.45"/><circle cx="472.3" cy="26.3" r="1.35" fill="#ffffff" opacity="0.77"/><circle cx="233.5" cy="469.6" r="1.60" fill="#ffffff" opacity="0.70"/><circle cx="210.1" cy="426.9" r="1.47" fill="#ffffff" opacity="0.43"/><circle cx="297.7" cy="497.6" r="1.44" fill="#ffffff" opacity="0.45"/><circle cx="711.2" cy="2.0" r="1.12" fill="#ffffff" opacity="0.33"/><circle cx="1583.1" cy="439.8" r="0.79" fill="#ffffff" opacity="0.51"/><circle cx="277.3" cy="57.8" r="1.44" fill="#ffffff" opacity="0.84"/><circle cx="517.9" cy="75.7" r="0.68" fill="#ffffff" opacity="0.65"/><circle cx="14.0" cy="242.6" r="1.00" fill="#ffffff" opacity="0.68"/><circle cx="1441.4" cy="247.3" r="1.02" fill="#ffffff" opacity="0.27"/><circle cx="308.3" cy="513.7" r="1.48" fill="#ffffff" opacity="0.34"/><circle cx="433.0" cy="66.3" r="1.36" fill="#ffffff" opacity="0.75"/><circle cx="523.2" cy="2.4" r="1.43" fill="#ffffff" opacity="0.36"/><circle cx="918.1" cy="294.9" r="0.63" fill="#ffffff" opacity="0.28"/><circle cx="86.0" cy="52.6" r="1.53" fill="#ffffff" opacity="0.77"/><circle cx="1157.9" cy="204.5" r="0.45" fill="#ffffff" opacity="0.34"/><circle cx="366.0" cy="325.2" r="1.36" fill="#ffffff" opacity="0.69"/><circle cx="496.2" cy="129.5" r="1.30" fill="#ffffff" opacity="0.29"/><circle cx="697.5" cy="95.8" r="1.29" fill="#ffffff" opacity="0.50"/><circle cx="1207.2" cy="449.6" r="0.81" fill="#ffffff" opacity="0.44"/><circle cx="1522.6" cy="472.7" r="0.58" fill="#ffffff" opacity="0.31"/><circle cx="183.8" cy="174.6" r="0.81" fill="#ffffff" opacity="0.69"/><circle cx="80.6" cy="203.9" r="1.50" fill="#ffffff" opacity="0.41"/><circle cx="348.8" cy="304.8" r="1.22" fill="#ffffff" opacity="0.68"/><circle cx="545.0" cy="263.6" r="0.44" fill="#ffffff" opacity="0.34"/><circle cx="955.2" cy="31.5" r="0.55" fill="#ffffff" opacity="0.66"/><circle cx="1243.9" cy="488.5" r="1.48" fill="#ffffff" opacity="0.35"/><circle cx="1336.4" cy="90.6" r="1.48" fill="#ffffff" opacity="0.35"/><circle cx="1308.0" cy="359.9" r="1.58" fill="#ffffff" opacity="0.50"/><circle cx="95.4" cy="487.2" r="1.06" fill="#ffffff" opacity="0.40"/><circle cx="105.2" cy="339.4" r="0.86" fill="#ffffff" opacity="0.28"/><circle cx="1160.2" cy="172.5" r="1.32" fill="#ffffff" opacity="0.70"/><circle cx="475.9" cy="4.6" r="1.20" fill="#ffffff" opacity="0.64"/><circle cx="592.4" cy="36.4" r="1.19" fill="#ffffff" opacity="0.55"/><circle cx="1034.2" cy="419.0" r="0.84" fill="#ffffff" opacity="0.56"/><circle cx="1557.6" cy="420.1" r="0.58" fill="#ffffff" opacity="0.35"/><circle cx="1361.0" cy="377.8" r="0.73" fill="#ffffff" opacity="0.81"/><circle cx="1058.5" cy="55.7" r="1.55" fill="#ffffff" opacity="0.49"/><circle cx="1538.8" cy="511.0" r="0.59" fill="#ffffff" opacity="0.44"/><circle cx="586.0" cy="462.5" r="0.52" fill="#ffffff" opacity="0.35"/><circle cx="595.1" cy="282.1" r="1.38" fill="#ffffff" opacity="0.84"/><circle cx="339.5" cy="467.1" r="1.01" fill="#ffffff" opacity="0.74"/><circle cx="332.7" cy="166.4" r="0.78" fill="#ffffff" opacity="0.33"/><circle cx="1261.2" cy="305.5" r="1.47" fill="#ffffff" opacity="0.31"/><circle cx="1501.8" cy="174.2" r="1.05" fill="#ffffff" opacity="0.43"/><circle cx="451.8" cy="100.5" r="0.55" fill="#ffffff" opacity="0.62"/>
<circle cx="1250" cy="180" r="44" fill="#e0f2fe" opacity="0.85"/>
<path d="M0.0,402.4 L114.3,371.2 L228.6,439.4 L342.9,393.4 L457.1,334.8 L571.4,198.4 L685.7,330.7 L800.0,147.6 L914.3,392.2 L1028.6,422.2 L1142.9,340.3 L1257.1,173.5 L1371.4,404.8 L1485.7,371.4 L1600.0,426.3 L1600,1000 L0,1000 Z" fill="#31497a"/><path d="M0.0,650.1 L114.3,452.9 L228.6,519.8 L342.9,551.2 L457.1,549.2 L571.4,631.0 L685.7,562.7 L800.0,576.0 L914.3,540.2 L1028.6,481.3 L1142.9,501.5 L1257.1,382.8 L1371.4,582.9 L1485.7,423.8 L1600.0,634.9 L1600,1000 L0,1000 Z" fill="#1e2f52"/><path d="M0.0,757.8 L114.3,602.1 L228.6,729.2 L342.9,725.3 L457.1,745.2 L571.4,730.0 L685.7,767.2 L800.0,658.1 L914.3,725.0 L1028.6,693.8 L1142.9,734.5 L1257.1,580.5 L1371.4,723.2 L1485.7,550.0 L1600.0,737.7 L1600,1000 L0,1000 Z" fill="#0f1a30"/>
<ellipse cx="800" cy="880" rx="544" ry="90" fill="#1c3d66"/><ellipse cx="800" cy="870" rx="480" ry="70" fill="#2b5a8f" opacity="0.7"/>
</svg>