<svg xmlns="http://www.w3.org/2000/svg" width="1600" height="1000" viewBox="0 0 1600 1000">
<defs><linearGradient id="sky" x1="0" y1="0" x2="0" y2="1"><stop offset="0%" stop-color="#0d1420"/><stop offset="100%" stop-color="#33506b"/></linearGradient></defs>
<rect width="1600" height="1000" fill="url(#sky)"/>
<circle cx="827.5" cy="34.8" r="1.50" fill="#ffffff" opacity="0.62"/><circle cx="409.2" cy="316.9" r="0.74" fill="#ffffff" opacity="0.63"/><circle cx="878.7" cy="99.9" r="0.72" fill="#ffffff" opacity="0.76"/><circle cx="510.7" cy="19.6" r="1.57" fill="#ffffff" opacity="0.55"/><circle cx="1404.3" cy="437.9" r="0.98" fill="#ffffff" opacity="0.69"/><circle cx="268.8" cy="121.9" r="0.73" fill="#ffffff" opacity="0.83"/><circle cx="1587.3" cy="101.0" r="0.51" fill="#ffffff" opacity="0.57"/><circle cx="781.3" cy="456.0" r="0.68" fill="#ffffff" opacity="0.54"/><circle cx="1360.3" cy="205.7" r="0.65" fill="#ffffff" opacity="0.33"/><circle cx="528.4" cy="386.3" r="1.55" fill="#ffffff" opacity="0.45"/><circle cx="1291.1" cy="351.2" r="1.18" fill="#ffffff" opacity="0.78"/><circle cx="970.1" cy="47.5" r="0.53" fill="#ffffff" opacity="0.76"/><circle cx="1304.1" cy="502.8" r="1.54" fill="#ffffff" opacity="0.34"/><circle cx="1138.5" cy="112.7" r="1.18" fill="#ffffff" opacity="0.41"/><circle cx="1482.1" cy="520.7" r="0.42" fill="#ffffff" opacity="0.51"/><circle cx="33.3" cy="4.6" r="1.14" fill="#ffffff" opacity="0.31"/><circle cx="543.7" cy="329.7" r="1.01" fill="#ffffff" opacity="0.76"/><circle cx="926.3" cy="414.9" r="1.25" fill="#ffffff" opacity="0.63"/><circle cx="122.9" cy="322.5" r="0.41" fill="#ffffff" opacity="0.64"/><circle cx="429.7" cy="103.4" r="1.00" fill="#ffffff" opacity="0.31"/><circle cx="250.8" cy="280.7" r="0.70" fill="#ffffff" opacity="0.40"/><circle cx="1376.7" cy="468.2" r="0.70" fill="#ffffff" opacity="0.65"/><circle cx="61.9" cy="226.3" r="1.33" fill="#ffffff" opacity="0.68"/><circle cx="175.9" cy="478.3" r="0.99" fill="#ffffff" opacity="0.69"/><circle cx="1136.9" cy="53.0" r="1.18" fill="#ffffff" opacity="0.65"/><circle cx="1096.0" cy="319.5" r="0.85" fill="#ffffff" opacity="0.42"/><circle cx="668.0" cy="328.0" r="1.24" fill="#ffffff" opacity="0.46"/><circle cx="1434.9" cy="217.7" r="1.57" fill="#ffffff" opacity="0.54"/><circle cx="1322.5" cy="460.7" r="0.96" fill="#ffffff" opacity="0.37"/><circle cx="1426.1" cy="417.7" r="0.60" fill="#ffffff" opacity="0.64"/><circle cx="1570.6" cy="91.8" r="0.52" fill="#ffffff" opacity="0.38"/><circle cx="246.4" cy="151.8" r="1.54" fill="#ffffff" opacity="0.48"/><circle cx="215.9" cy="434.7" r="1.08" fill="#ffffff" opacity="0.60"/><circle cx="669.5" cy="442.5" r="0.70" fill="#ffffff" opacity="0.80"/><circle cx="809.9" cy="239.5" r="0.40" fill="#ffffff" opacity="0.80"/><circle cx="588.5" cy="166.5" r="0.98" fill="#ffffff" opacity="0.34"/><circle cx="663.6" cy="211.4" r="0.89" fill="#ffffff" opacity="0.80"/><circle cx="989.0" cy="212.4" r="1.38" fill="#ffffff" opacity="0.54"/><circle cx="53.1" cy="531.5" r="1.03" fill="#ffffff" opacity="0.55"/><circle cx="847.3" cy="544.9" r="1.48" fill="#ffffff" opacity="0.74"/><circle cx="222.3" cy="449.1" r="0.44" fill="#ffffff" opacity="0.81"/><circle cx="97.3" cy="333.8" r="0.99" fill="#ffffff" opacity="0.63"/><circle cx="363.2" cy="199.1" r="1.29" fill="#ffffff" opacity="0.43"/><circle cx="1525.9" cy="484.5" r="1.16" fill="#ffffff" opacity="0.61"/><circle cx="456.5" cy="87.6" r="0.71" fill="#ffffff" opacity="0.55"/><circle cx="157.4" cy="169.1" r="1.48" fill="#ffffff" opacity="0.66"/><circle cx="575.9" cy="352.1" r="0.74" fill="#ffffff" opacity="0.26"/><circle cx="60.4" cy="35.1" r="0.42" fill="#ffffff" opacity="0.51"/><circle cx="1311.4" cy="448.1" r="0.56" fill="#ffffff" opacity="0.51"/><circle cx="1012.1" cy="79.4" r="0.48" fill="#ffffff" opacity="0.60"/><circle cx="4.4" cy="293.7" r="0.59" fill="#ffffff" opacity="0.84"/><circle cx="253.3" cy="423.6" r="1.54" fill="#ffffff" opacity="0.76"/><circle cx="668.0" cy="37.2" r="1.55" fill="#ffffff" opacity="0.64"/><circle cx="952.3" cy="338.6" r="0.91" fill="#ffffff" opacity="0.79"/><circle cx="249.5" cy="240.7" r="1.04" fill="#ffffff" opacity="0.42"/><circle cx="939.1" cy="412.9" r="1.17" fill="#ffffff" opacity="0.60"/><circle cx="703.2" cy="175.4" r="1.50" fill="#ffffff" opacity="0.39"/><circle cx="853.2" cy="228.5" r="1.14" fill="#ffffff" opacity="0.52"/><circle cx="1496.0" cy="429.2" r="0.61" fill="#ffffff" opacity="0.59"/><circle cx="633.9" cy="204.6" r="1.08" fill="#ffffff" opacity="0.32"/>
<circle cx="800" cy="190" r="64" fill="#fde68a" opacity="0.7"/>
<path d="M0.0,442.5 L114.3,344.2 L228.6,444.5 L342.9,278.2 L457.1,495.0 L571.4,315.5 L685.7,436.0 L800.0,449.4 L914.3,474.4 L1028.6,324.3 L1142.9,495.8 L1257.1,481.5 L1371.4,515.0 L1485.7,500.3 L1600.0,484.0 L1600,1000 L0,1000 Z" fill="#3d5a76"/><path d="M0.0,665.7 L114.3,571.1 L228.6,653.0 L342.9,518.1 L457.1,674.1 L571.4,616.6 L685.7,665.9 L800.0,452.4 L914.3,716.4 L1028.6,683.7 L1142.9,679.9 L1257.1,591.3 L1371.4,612.2 L1485.7,512.7 L1600.0,660.1 L1600,1000 L0,1000 Z" fill="#25394d"/><path d="M0.0,821.7 L114.3,642.6 L228.6,764.3 L342.9,780.2 L457.1,812.4 L571.4,807.4 L685.7,770.9 L800.0,813.7 L914.3,790.5 L1028.6,737.2 L1142.9,806.0 L1257.1,761.7 L1371.4,787.0 L1485.7,717.4 L1600.0,799.1 L1600,1000 L0,1000 Z" fill="#101c29"/>

</svg>